<?xml version="1.0" encoding="UTF-8" standalone="no"?>
<!-- Created with Inkscape (http://www.inkscape.org/) -->

<svg
   width="32"
   height="32"
   viewBox="0 0 32 32"
   version="1.1"
   id="svg5"
   sodipodi:docname="food4Ever_logo_colored_detail.svg"
   inkscape:version="1.1.1 (3bf5ae0d25, 2021-09-20)"
   inkscape:export-filename="E:\OscarDeladas\Aplikasi\Laragon\www\tugas_backend\img\logo\logo_small.png"
   inkscape:export-xdpi="96"
   inkscape:export-ydpi="96"
   xmlns:inkscape="http://www.inkscape.org/namespaces/inkscape"
   xmlns:sodipodi="http://sodipodi.sourceforge.net/DTD/sodipodi-0.dtd"
   xmlns="http://www.w3.org/2000/svg"
   xmlns:svg="http://www.w3.org/2000/svg">
  <sodipodi:namedview
     id="namedview9"
     pagecolor="#ffffff"
     bordercolor="#111111"
     borderopacity="1"
     inkscape:pageshadow="0"
     inkscape:pageopacity="0"
     inkscape:pagecheckerboard="1"
     showgrid="false"
     inkscape:zoom="17.5"
     inkscape:cx="17.085714"
     inkscape:cy="18.028571"
     inkscape:window-width="1366"
     inkscape:window-height="745"
     inkscape:window-x="-8"
     inkscape:window-y="-8"
     inkscape:window-maximized="1"
     inkscape:current-layer="svg5"
     width="32px" />
  <defs
     id="defs2" />
  <g
     aria-label="ever"
     id="text18854"
     style="font-size:8px;line-height:1.25;font-family:'Lobster 1.4';-inkscape-font-specification:'Lobster 1.4, '"
     transform="matrix(1.8242189,0,0,1.8242189,-16.689985,-3.857944)"
     inkscape:export-filename="E:\OscarDeladas\Aplikasi\Laragon\www\tugas_frontend\img\logo.png"
     inkscape:export-xdpi="6355.709"
     inkscape:export-ydpi="6355.709">
    <path
       d="m 12.003428,6.914286 0.336,-1.592 c 0.368,0.08 0.752,0.152 1.12,0.152 0.624,-0.136 0.648,-0.624 0.76,-0.96 -0.224,0.072 -0.472,0.096 -0.72,0.096 -0.504,0 -1.008,-0.096 -1.328,-0.096 -1.976,0 -2.7279995,1.016 -2.7279995,2.08 0,0.576 0.304,0.776 0.8559995,0.776 -0.008,-0.072 -0.112,-0.136 -0.112,-0.544 0,-1.28 0.424,-1.632 1.04,-1.656 l -1.152,5.344 h 1.152 l 0.648,-3.008 h 1.168 l 0.128,-0.592 z"
       id="path1104"
       style="fill:#803300" />
    <path
       id="path1100"
       style="fill:#803300;stroke-width:1.81166"
       d="m 10.933594,7.9492188 c -2.9856146,0 -3.9707034,3.4797582 -3.9707034,5.1464842 0,1.652233 0.970485,2.289063 2.3183594,2.289063 1.782673,0 3.232951,-1.680073 3.464844,-4.361328 1.058009,-0.17392 2.013708,-0.608901 2.564453,-1.2031255 L 15.179688,9.4277344 c -0.623211,0.4347982 -1.565732,0.8710936 -2.232422,0.8710936 -0.04348,0 -0.10023,-3.1e-4 -0.158204,-0.0293 0,-1.5217935 -0.609047,-2.3203123 -1.855468,-2.3203122 z m 0.115234,0.8847656 c 0.376825,0 0.521795,0.2311262 0.550781,0.8398437 -0.260879,0.1159462 -0.449218,0.3773919 -0.449218,0.7832029 0,0.289866 0.08822,0.536909 0.392578,0.609375 -0.231893,1.710207 -0.97147,3.013672 -1.6816409,3.013672 -0.5507444,0 -0.7402343,-0.217272 -0.7402343,-1.173828 0,-1.420341 0.8987122,-4.0722656 1.9277342,-4.0722656 z"
       transform="matrix(0.5519802,0,0,0.5519802,9.088306,2.0540313)" />
    <path
       id="path1096"
       style="fill:#803300;stroke-width:1.81166"
       d="m 17.296875,7.9492188 c -2.985614,0 -3.972656,3.4797582 -3.972656,5.1464842 0,1.652233 0.972438,2.289063 2.320312,2.289063 1.782673,0 3.230999,-1.680073 3.462891,-4.361328 1.058009,-0.17392 2.015662,-0.608901 2.566406,-1.2031255 L 21.542969,9.4277344 c -0.623211,0.4347982 -1.565732,0.8710936 -2.232422,0.8710936 -0.04348,0 -0.102183,-3.1e-4 -0.160156,-0.0293 0,-1.5217935 -0.607094,-2.3203123 -1.853516,-2.3203122 z m 0.115234,0.8847656 c 0.376825,0 0.521795,0.2311262 0.550782,0.8398437 -0.260879,0.1159462 -0.449219,0.3773919 -0.449219,0.7832029 0,0.289866 0.08627,0.536909 0.390625,0.609375 -0.231892,1.710207 -0.97147,3.013672 -1.681641,3.013672 -0.550744,0 -0.738281,-0.217272 -0.738281,-1.173828 0,-1.420341 0.898712,-4.0722656 1.927734,-4.0722656 z"
       transform="matrix(0.5519802,0,0,0.5519802,9.088306,2.0540313)" />
    <path
       id="path1092"
       style="fill:#803300;stroke-width:1.81166"
       d="m 27.455078,5.1816406 -2.144531,0.2890625 -0.708985,3.3339844 v -0.056641 c 0,-0.420305 -0.349664,-0.7402344 -1.175781,-0.7402344 -2.521829,0 -3.724609,3.1156739 -3.724609,5.0722659 0,1.7247 0.942192,2.333984 1.927734,2.333984 0.956556,0 1.623796,-0.579914 2.058594,-1.203124 0.173919,0.840609 0.768656,1.203124 1.507812,1.203124 0.782637,0 1.521284,-0.463165 1.59375,-1.492187 -0.08696,0.04348 -0.202011,0.08594 -0.46289,0.08594 -0.449292,0 -0.595703,-0.246732 -0.595703,-0.580078 0,-0.130439 0.02961,-0.274989 0.05859,-0.419922 z M 23.876953,8.90625 c 0.434798,0 0.564764,0.3338932 0.59375,0.5078125 l -0.769531,3.5507815 c -0.159426,0.71017 -0.752081,1.042968 -1.128906,1.042968 -0.260879,0 -0.72461,-0.01488 -0.72461,-1.130859 0,-1.362368 0.797369,-3.970703 2.029297,-3.970703 z"
       transform="matrix(0.5519802,0,0,0.5519802,9.088306,2.0540313)" />
    <path
       d="m 11.395429,15.057143 -0.472,2.2 h 1.152 l 0.464,-2.2 h 0.48 l 0.16,-0.592 h -0.512 l 0.688,-3.208 -1.184,0.16 -0.648,3.048 h -1.248 c 0.408,-0.76 1.168,-1.432 1.168,-2.448 0,-0.504 -0.424,-0.76 -0.888,-0.76 0.04,0.16 0.056,0.32 0.056,0.48 0,1.168 -0.8800001,2.44 -1.1680001,3.32 z"
       id="path1090" />
    <path
       id="path1086"
       style="fill:#aa4400;stroke-width:1.81166"
       d="m 12.3125,20.078125 c -2.9711211,0 -3.9140625,3.49343 -3.9140625,5.160156 0,1.63774 0.899351,2.304688 2.2617185,2.304688 1.927606,0 3.160212,-1.34826 3.986328,-2.681641 h -0.49414 c -0.724664,0.826117 -1.419485,1.464844 -2.564453,1.464844 -0.695677,0 -1.042969,-0.233208 -1.042969,-1.21875 0,-0.173919 0.0148,-0.377172 0.0293,-0.580078 1.739193,-0.101453 3.332031,-1.389914 3.332031,-3.056641 0,-0.724664 -0.303849,-1.392578 -1.59375,-1.392578 z m 0.115234,0.769531 c 0.275373,0 0.363282,0.231418 0.363282,0.59375 0,1.202942 -0.985581,2.318159 -2.101563,2.390625 0.289866,-1.434834 0.999124,-2.984375 1.738281,-2.984375 z"
       transform="matrix(0.5519802,0,0,0.5519802,9.088306,2.0540313)" />
    <path
       d="m 19.588562,13.049143 c -0.336,0 -0.496,0.184 -0.496,0.432 0,0.176 0.096,0.408 0.288,0.408 0.064,0 0.232,-0.024 0.256,-0.08 0,0.88 -0.6,2.672 -1.384,2.672 -0.192,0 -0.272,-0.104 -0.272,-0.264 0,-0.072 0.016,-0.176 0.04,-0.288 l 0.576,-2.72 h -1.152 l -0.576,2.72 c -0.032,0.152 -0.04,0.296 -0.04,0.384 0,0.632 0.376,0.944 0.984,0.944 1.632,0 2.28,-2.232 2.28,-3.512 0,-0.352 -0.12,-0.696 -0.504,-0.696 z"
       id="path1084"
       style="fill:#aa4400" />
    <path
       id="path1080"
       style="fill:#aa4400;stroke-width:1.81166"
       d="m 23.878906,20.078125 c -2.971121,0 -3.914062,3.49343 -3.914062,5.160156 0,1.63774 0.899351,2.304688 2.261718,2.304688 1.927606,0 3.158259,-1.34826 3.984376,-2.681641 H 25.71875 c -0.724664,0.826117 -1.419485,1.464844 -2.564453,1.464844 -0.695677,0 -1.044922,-0.233208 -1.044922,-1.21875 0,-0.173919 0.0148,-0.377172 0.0293,-0.580078 1.739193,-0.101453 3.333984,-1.389914 3.333984,-3.056641 0,-0.724664 -0.303848,-1.392578 -1.59375,-1.392578 z m 0.115235,0.769531 c 0.275372,0 0.361328,0.231418 0.361328,0.59375 0,1.202942 -0.985581,2.318159 -2.101563,2.390625 0.289866,-1.434834 1.001078,-2.984375 1.740235,-2.984375 z"
       transform="matrix(0.5519802,0,0,0.5519802,9.088306,2.0540313)" />
    <path
       d="m 23.82855,13.209143 -0.848,4 h 1.152 l 0.64,-3.04 c 0.2,-0.184 0.344,-0.304 0.584,-0.304 0.24,0 0.016,0.528 0.464,0.528 0.392,0 0.576,-0.304 0.576,-0.584 0,-0.304 -0.192,-0.6 -0.552,-0.6 -0.384,0 -0.688,0.256 -0.968,0.496 l 0.104,-0.496 z"
       id="path20744"
       style="fill:#aa4400" />
  </g>
</svg>
