<?xml version="1.0" encoding="UTF-8" standalone="no"?>
<!-- Created with Inkscape (http://www.inkscape.org/) -->

<svg
   width="32"
   height="32"
   viewBox="0 0 32 32"
   version="1.1"
   id="svg5"
   sodipodi:docname="food4Ever_logo.svg"
   inkscape:version="1.1.1 (3bf5ae0d25, 2021-09-20)"
   xmlns:inkscape="http://www.inkscape.org/namespaces/inkscape"
   xmlns:sodipodi="http://sodipodi.sourceforge.net/DTD/sodipodi-0.dtd"
   xmlns="http://www.w3.org/2000/svg"
   xmlns:svg="http://www.w3.org/2000/svg">
  <sodipodi:namedview
     id="namedview9"
     pagecolor="#ffffff"
     bordercolor="#111111"
     borderopacity="1"
     inkscape:pageshadow="0"
     inkscape:pageopacity="0"
     inkscape:pagecheckerboard="1"
     showgrid="false"
     inkscape:zoom="17.5"
     inkscape:cx="13.914286"
     inkscape:cy="16.2"
     inkscape:window-width="1366"
     inkscape:window-height="745"
     inkscape:window-x="-8"
     inkscape:window-y="-8"
     inkscape:window-maximized="1"
     inkscape:current-layer="svg5"
     width="32px" />
  <defs
     id="defs2" />
  <g
     id="layer1"
     transform="matrix(1.4225352,0,0,1.4225352,-6.7605632,-6.7605633)">
    <g
       aria-label="Food"
       id="text4808"
       style="font-size:8px;line-height:1.25;font-family:'Lobster 1.4';-inkscape-font-specification:'Lobster 1.4, '" />
    <g
       aria-label="4"
       id="text13954"
       style="font-size:8px;line-height:1.25;font-family:'Lobster 1.4';-inkscape-font-specification:'Lobster 1.4, '" />
    <g
       aria-label="ever"
       id="text18854"
       style="font-size:8px;line-height:1.25;font-family:'Lobster 1.4';-inkscape-font-specification:'Lobster 1.4, '"
       transform="matrix(1.2735426,0,0,1.2735426,-6.8218697,2.1365789)">
      <path
         id="path20744"
         d="m 23.82855,13.209143 -0.848,4 h 1.152 l 0.64,-3.04 c 0.2,-0.184 0.344,-0.304 0.584,-0.304 0.24,0 0.016,0.528 0.464,0.528 0.392,0 0.576,-0.304 0.576,-0.584 0,-0.304 -0.192,-0.6 -0.552,-0.6 -0.384,0 -0.688,0.256 -0.968,0.496 l 0.104,-0.496 z m -2.535991,2.704 c 0,-0.096 0.008,-0.208 0.016,-0.32 0.96,-0.056 1.84,-0.768 1.84,-1.688 0,-0.4 -0.168,-0.768 -0.88,-0.768 -1.64,0 -2.16,1.928 -2.16,2.848 0,0.904 0.496,1.272 1.248,1.272 1.064,0 1.744,-0.744 2.2,-1.48 h -0.272 c -0.4,0.456 -0.784,0.808 -1.416,0.808 -0.384,0 -0.576,-0.128 -0.576,-0.672 z m 1.24,-2.024 c 0,0.664 -0.544,1.28 -1.16,1.32 0.16,-0.792 0.552,-1.648 0.96,-1.648 0.152,0 0.2,0.128 0.2,0.328 z m -2.943997,-0.84 c -0.336,0 -0.496,0.184 -0.496,0.432 0,0.176 0.096,0.408 0.288,0.408 0.064,0 0.232,-0.024 0.256,-0.08 0,0.88 -0.6,2.672 -1.384,2.672 -0.192,0 -0.272,-0.104 -0.272,-0.264 0,-0.072 0.016,-0.176 0.04,-0.288 l 0.576,-2.72 h -1.152 l -0.576,2.72 c -0.032,0.152 -0.04,0.296 -0.04,0.384 0,0.632 0.376,0.944 0.984,0.944 1.632,0 2.28,-2.232 2.28,-3.512 0,-0.352 -0.12,-0.696 -0.504,-0.696 z m -4.679991,2.864 c 0,-0.096 0.008,-0.208 0.016,-0.32 0.96,-0.056 1.84,-0.768 1.84,-1.688 0,-0.4 -0.168,-0.768 -0.88,-0.768 -1.64,0 -2.16,1.928 -2.16,2.848 0,0.904 0.496,1.272 1.248,1.272 1.064,0 1.744,-0.744 2.2,-1.48 h -0.272 c -0.4,0.456 -0.784,0.808 -1.416,0.808 -0.384,0 -0.576,-0.128 -0.576,-0.672 z m 1.24,-2.024 c 0,0.664 -0.544,1.28 -1.16,1.32 0.16,-0.792 0.552,-1.648 0.96,-1.648 0.152,0 0.2,0.128 0.2,0.328 z m -4.753142,1.168 -0.472,2.2 h 1.152 l 0.464,-2.2 h 0.48 l 0.16,-0.592 h -0.512 l 0.688,-3.208 -1.184,0.16 -0.648,3.048 h -1.248 c 0.408,-0.76 1.168,-1.432 1.168,-2.448 0,-0.504 -0.424,-0.76 -0.888,-0.76 0.04,0.16 0.056,0.32 0.056,0.48 0,1.168 -0.8800001,2.44 -1.1680001,3.32 z m 12.847983,-10.142857 -1.184,0.16 -0.392,1.84 v -0.032 c 0,-0.232 -0.192,-0.408 -0.648,-0.408 -1.392,0 -2.056,1.72 -2.056,2.8 0,0.952 0.52,1.288 1.064,1.288 0.528,0 0.896,-0.32 1.136,-0.664 0.096,0.464 0.424,0.664 0.832,0.664 0.432,0 0.84,-0.256 0.88,-0.824 -0.048,0.024 -0.112,0.048 -0.256,0.048 -0.248,0 -0.328,-0.136 -0.328,-0.32 0,-0.072 0.016,-0.152 0.032,-0.232 z m -2.072,4.296 c -0.088,0.392 -0.416,0.576 -0.624,0.576 -0.144,0 -0.4,-0.008 -0.4,-0.624 0,-0.752 0.44,-2.192 1.12,-2.192 0.24,0 0.312,0.184 0.328,0.28 z m -3.535993,-2.768 c -1.648,0 -2.192,1.92 -2.192,2.84 0,0.912 0.536,1.264 1.28,1.264 0.984,0 1.784,-0.928 1.912,-2.408 0.584,-0.096 1.112,-0.336 1.416,-0.664 l -0.072,-0.216 c -0.344,0.24 -0.864,0.48 -1.232,0.48 -0.024,0 -0.056,0 -0.088,-0.016 0,-0.84 -0.336,-1.28 -1.024,-1.28 z m -0.592,3.384 c -0.304,0 -0.408,-0.12 -0.408,-0.648 0,-0.784 0.496,-2.248 1.064,-2.248 0.208,0 0.288,0.128 0.304,0.464 -0.144,0.064 -0.248,0.208 -0.248,0.432 0,0.16 0.048,0.296 0.216,0.336 -0.128,0.944 -0.536,1.664 -0.928,1.664 z m -2.919993,-3.384 c -1.648,0 -2.192,1.92 -2.192,2.84 0,0.912 0.536,1.264 1.28,1.264 0.984,0 1.784,-0.928 1.912,-2.408 0.584,-0.096 1.112,-0.336 1.416,-0.664 l -0.072,-0.216 c -0.344,0.24 -0.864,0.48 -1.232,0.48 -0.024,0 -0.056,0 -0.088,-0.016 0,-0.84 -0.336,-1.28 -1.024,-1.28 z m -0.592,3.384 c -0.304,0 -0.408,-0.12 -0.408,-0.648 0,-0.784 0.496,-2.248 1.064,-2.248 0.208,0 0.288,0.128 0.304,0.464 -0.144,0.064 -0.248,0.208 -0.248,0.432 0,0.16 0.048,0.296 0.216,0.336 -0.128,0.944 -0.536,1.664 -0.928,1.664 z m -2.527998,-2.912 0.336,-1.592 c 0.368,0.08 0.752,0.152 1.12,0.152 0.624,-0.136 0.648,-0.624 0.76,-0.96 -0.224,0.072 -0.472,0.096 -0.72,0.096 -0.504,0 -1.008,-0.096 -1.328,-0.096 -1.976,0 -2.7279995,1.016 -2.7279995,2.08 0,0.576 0.304,0.776 0.8559995,0.776 -0.008,-0.072 -0.112,-0.136 -0.112,-0.544 0,-1.28 0.424,-1.632 1.04,-1.656 l -1.152,5.344 h 1.152 l 0.648,-3.008 h 1.168 l 0.128,-0.592 z" />
    </g>
  </g>
</svg>
