<?xml version="1.0" encoding="UTF-8" standalone="no"?>
<!-- Created with Inkscape (http://www.inkscape.org/) -->

<svg
   width="48"
   height="48"
   viewBox="0 0 48 48"
   version="1.1"
   id="svg5"
   sodipodi:docname="best-food.svg"
   inkscape:version="1.1.1 (3bf5ae0d25, 2021-09-20)"
   xmlns:inkscape="http://www.inkscape.org/namespaces/inkscape"
   xmlns:sodipodi="http://sodipodi.sourceforge.net/DTD/sodipodi-0.dtd"
   xmlns="http://www.w3.org/2000/svg"
   xmlns:svg="http://www.w3.org/2000/svg">
  <sodipodi:namedview
     id="namedview15"
     pagecolor="#ffffff"
     bordercolor="#111111"
     borderopacity="1"
     inkscape:pageshadow="0"
     inkscape:pageopacity="0"
     inkscape:pagecheckerboard="1"
     showgrid="false"
     inkscape:zoom="8"
     inkscape:cx="20.375"
     inkscape:cy="23.3125"
     inkscape:window-width="1366"
     inkscape:window-height="745"
     inkscape:window-x="-8"
     inkscape:window-y="-8"
     inkscape:window-maximized="1"
     inkscape:current-layer="svg5" />
  <defs
     id="defs2" />
  <g
     id="layer1"
     transform="translate(-1.6144817)">
    <g
       id="g998"
       transform="matrix(0.70340019,0,0,0.70340019,8.7056949,2.8427189)"
       style="fill:#000000" />
    <g
       id="text8290"
       style="font-size:13.3333px;line-height:1.25;font-family:Overlock;-inkscape-font-specification:Overlock" />
  </g>
  <g
     aria-label="Best Food"
     id="text1956"
     style="font-size:9.33333px;line-height:1.25;font-family:Overlock;-inkscape-font-specification:Overlock;fill:#ffffff"
     transform="translate(0,1.5521922)">
    <path
       id="path14538"
       d="m 41.798626,34.177143 -0.084,4.498665 q 0,1.558667 0.177334,2.034666 -0.149334,0.07467 -0.354667,0.07467 -0.392,0 -0.410666,-0.466666 -0.56,0.531999 -1.269333,0.531999 -0.7,0 -1.250667,-0.634666 -0.550666,-0.644 -0.550666,-1.642666 0,-0.998666 0.569333,-1.624 0.578667,-0.625333 1.390666,-0.625333 0.56,0 1.082667,0.317334 0.01867,-0.597334 0.01867,-1.353333 0,-0.765333 -0.07467,-1.437333 0.149333,-0.028 0.335999,-0.028 0.42,0 0.42,0.354666 z m -0.718666,2.949333 q -0.494667,-0.28 -0.961333,-0.28 -0.653333,0 -1.036,0.448 -0.373333,0.438666 -0.373333,1.222666 0,0.774666 0.392,1.306666 0.392,0.532 0.942666,0.532 0.56,0 1.054667,-0.532 -0.01867,-2.407999 -0.01867,-2.697332 z m -3.863994,1.465333 q 0,1.026666 -0.56,1.642666 -0.56,0.615999 -1.474666,0.615999 -0.905333,0 -1.465333,-0.615999 -0.56,-0.616 -0.56,-1.642666 0,-1.026667 0.56,-1.642667 0.56,-0.625333 1.465333,-0.625333 0.914666,0 1.474666,0.625333 0.56,0.616 0.56,1.642667 z M 35.1813,40.327808 q 0.653333,0 1.017333,-0.438667 0.364,-0.438666 0.364,-1.203999 0,-0.765333 -0.373334,-1.297333 -0.373333,-0.541333 -1.017333,-0.541333 -0.643999,0 -1.007999,0.448 -0.354667,0.438666 -0.354667,1.203999 0,0.765333 0.364,1.297333 0.364,0.532 1.008,0.532 z m -2.865328,-1.735999 q 0,1.026666 -0.56,1.642666 -0.56,0.615999 -1.474666,0.615999 -0.905333,0 -1.465333,-0.615999 -0.56,-0.616 -0.56,-1.642666 0,-1.026667 0.56,-1.642667 0.56,-0.625333 1.465333,-0.625333 0.914666,0 1.474666,0.625333 0.56,0.616 0.56,1.642667 z m -2.034666,1.735999 q 0.653333,0 1.017333,-0.438667 0.364,-0.438666 0.364,-1.203999 0,-0.765333 -0.373334,-1.297333 -0.373333,-0.541333 -1.017333,-0.541333 -0.643999,0 -1.007999,0.448 -0.354667,0.438666 -0.354667,1.203999 0,0.765333 0.364,1.297333 0.364,0.532 1.008,0.532 z m -5.347981,-0.07467 0.01867,-1.651999 v -1.801333 q 0,-1.334666 -0.130667,-2.174666 0.998667,-0.084 2.184,-0.084 1.194666,0 1.362666,0.14 0.084,0.07467 0.084,0.270667 0,0.196 -0.07467,0.382666 -0.532,-0.196 -1.735999,-0.196 -0.494667,0 -1.026667,0.028 0.03733,0.410667 0.03733,1.110667 v 0.961333 h 0.737333 q 0.774666,0 1.119999,-0.03733 0.03733,0.07467 0.03733,0.298667 0,0.214666 -0.149333,0.270666 -0.149334,0.056 -0.690667,0.056 h -1.054666 v 1.036 q 0,1.26 0.177333,1.847999 -0.168,0.07467 -0.438666,0.07467 -0.270667,0 -0.364,-0.121333 -0.09333,-0.121333 -0.09333,-0.410667 z m -5.263987,-3.331999 q -0.028,0 -0.867999,0.06533 -0.028,-0.084 -0.028,-0.261334 0,-0.186666 0.14,-0.242666 0.14,-0.06533 0.476,-0.06533 h 0.261333 q -0.01867,-0.625334 -0.056,-1.045333 0.14,-0.028 0.308,-0.028 0.448,0 0.448,0.354666 0,0.130667 -0.03733,0.728 1.185333,0 1.568,-0.04667 0.03733,0.07467 0.03733,0.242667 0,0.158666 -0.102667,0.224 -0.09333,0.06533 -0.363999,0.07467 -0.261334,0.0093 -1.157333,0.0093 -0.01867,1.007999 -0.01867,1.969332 0,0.952 0.177333,1.204 0.186667,0.252 0.588,0.252 0.410667,0 0.690666,-0.28 0.168,0.177333 0.168,0.354667 0,0.177333 -0.242666,0.298666 -0.242667,0.121333 -0.588,0.121333 -0.774666,0 -1.101333,-0.447999 -0.317333,-0.448 -0.317333,-1.334667 0.01867,-1.689332 0.01867,-2.146666 z m -1.819985,0.532 q -0.102666,-0.270666 -0.42,-0.438666 -0.317333,-0.168 -0.653333,-0.168 -0.326666,0 -0.56,0.177333 -0.233333,0.168 -0.233333,0.466667 0,0.298666 0.242667,0.457333 0.252,0.158666 0.606666,0.242666 0.354667,0.084 0.709333,0.196 0.354667,0.102667 0.597333,0.382667 0.252,0.28 0.252,0.728 0,0.662666 -0.476,1.007999 -0.475999,0.345333 -1.091999,0.345333 -0.606667,0 -1.054666,-0.214666 -0.438667,-0.214667 -0.438667,-0.532 0,-0.270667 0.42,-0.392 0.102667,0.298667 0.438666,0.457333 0.345334,0.158667 0.746667,0.158667 0.401333,0 0.644,-0.177333 0.252,-0.177334 0.252,-0.504 0,-0.326667 -0.252,-0.476 -0.242667,-0.149333 -0.597334,-0.224 -0.354666,-0.084 -0.709333,-0.186667 -0.354666,-0.112 -0.606666,-0.410666 -0.242667,-0.298667 -0.242667,-0.812 0,-0.522666 0.476,-0.867999 0.485333,-0.345334 1.008,-0.345334 0.522666,0 0.942666,0.196 0.42,0.196 0.42,0.513333 0,0.317334 -0.42,0.42 z m -4.778658,-1.129333 q 0.653333,0 1.054666,0.373333 0.410666,0.364 0.410666,0.793334 0,0.429333 -0.130666,0.671999 -0.130667,0.242667 -0.345333,0.382667 -0.205334,0.14 -0.597333,0.214666 -0.597334,0.112 -1.792,0.112 0.07467,0.672 0.401333,1.064 0.336,0.392 0.989333,0.392 0.653333,0 0.924,-0.485333 0.373333,0.149333 0.373333,0.410666 0,0.261334 -0.429333,0.429333 -0.42,0.168 -0.942666,0.168 -0.877333,0 -1.437333,-0.550666 -0.56,-0.56 -0.56,-1.670666 0,-1.12 0.616,-1.708 0.625333,-0.597333 1.465333,-0.597333 z m -0.03733,0.513333 q -0.559999,0 -0.961333,0.382667 -0.392,0.382667 -0.410666,1.185333 1.334666,0 1.773333,-0.196 0.186666,-0.084 0.317333,-0.242667 0.14,-0.158666 0.14,-0.419999 0,-0.270667 -0.252,-0.485334 -0.242667,-0.224 -0.606667,-0.224 z M 7.5547062,35.045143 q -0.2239999,0 -0.6346664,0.03733 0.037333,0.784 0.037333,2.1 0.2986666,0.01867 0.5133332,0.01867 1.7359994,0 1.7359994,-1.063999 0,-1.092 -1.6519995,-1.092 z m 0.4479999,5.235998 q 0.6066664,0 1.017333,-0.336 0.4106665,-0.345333 0.4106665,-0.961333 0,-0.625333 -0.4666665,-0.970666 -0.4573332,-0.345333 -1.101333,-0.345333 -0.6346664,0 -0.9146663,0.04667 0,0.746667 -0.1213333,2.230666 0.1773333,0.14 0.5133331,0.242667 0.3453333,0.09333 0.6626665,0.09333 z m -1.894666,-0.01867 q 0.1493332,-1.064 0.1493332,-2.958666 0,-1.894666 -0.1213332,-2.715999 0.6906664,-0.112 1.5959994,-0.112 0.905333,0 1.5493328,0.373333 0.6439998,0.373333 0.6439998,1.269333 0,0.896 -0.8119997,1.26 1.0359996,0.438666 1.0359996,1.595999 0,0.886666 -0.5786665,1.381333 -0.5693331,0.494666 -1.3999995,0.494666 -1.3533328,0 -2.0626659,-0.587999 z M 27.959174,31.201894 c -0.49782,-0.01886 -0.773351,-0.04305 -0.612292,-0.05377 0.16106,-0.01072 -0.16239,-0.0381 -0.718777,-0.06084 -1.135398,-0.04642 -2.35835,-0.13086 -3.114704,-0.215057 -0.403555,-0.04493 -5.262791,-0.918935 -5.73691,-1.031875 -0.119796,-0.02854 -0.119796,-0.02854 -0.119796,-5.530998 0,-5.502461 0,-5.502461 0.370638,-5.528979 0.510292,-0.03651 0.848194,-0.213379 1.321418,-0.691665 0.859731,-0.868932 1.581298,-2.100059 2.561344,-4.370129 0.236588,-0.548007 0.481217,-1.098046 0.54362,-1.222308 0.207273,-0.412733 0.539783,-0.787405 1.189087,-1.339861 0.877322,-0.746461 1.191104,-1.099458 1.487578,-1.6734875 0.501623,-0.9712341 0.775265,-2.1046089 0.966013,-4.0010373 0.106255,-1.0563942 0.152138,-1.2600201 0.294066,-1.3050664 0.05835,-0.018518 0.09234,-0.055904 0.07555,-0.08308 -0.0178,-0.028798 0.142909,-0.049069 0.385237,-0.048594 0.251382,4.931e-4 0.387337,0.018836 0.343852,0.046392 -0.0487,0.03086 0.0069,0.057395 0.172136,0.082176 0.423503,0.063508 0.979001,0.382168 1.391495,0.7982264 0.647421,0.6530163 0.919842,1.3738583 0.969508,2.5653726 0.05513,1.3224286 -0.112632,1.9654086 -0.990332,3.7957882 -0.830241,1.731409 -0.955238,2.064335 -1.045107,2.783612 -0.03613,0.289223 0.03556,0.702139 0.132301,0.761926 0.02716,0.01678 1.314317,0.03868 2.860352,0.04865 4.156809,0.02682 4.519169,0.08559 5.213828,0.84566 0.453569,0.496277 0.976603,1.38432 0.978838,1.66194 6.49e-4,0.0803 0.01215,0.08867 0.04677,0.03402 0.06111,-0.09646 0.09954,0.22798 0.05273,0.445164 -0.01894,0.08785 -0.03727,0.140683 -0.04073,0.117404 -0.0034,-0.02328 -0.199552,0.240273 -0.435752,0.58567 -0.425449,0.622141 -0.429274,0.630726 -0.41016,0.920831 0.01635,0.248134 0.07784,0.39452 0.402831,0.958961 0.210947,0.366369 0.383906,0.701798 0.384354,0.745399 7.04e-4,0.06981 0.007,0.06974 0.05242,-5.91e-4 0.03691,-0.05712 0.05185,6.66e-4 0.05242,0.202803 4.26e-4,0.155466 -0.01875,0.270576 -0.04266,0.255799 -0.02391,-0.01478 -0.08517,0.04372 -0.136138,0.13 -0.05097,0.08628 -0.258169,0.352494 -0.460451,0.591593 -0.202282,0.239097 -0.407525,0.51847 -0.456097,0.620825 -0.125229,0.263901 -0.07361,0.611002 0.195383,1.313683 0.405243,1.058624 0.364289,1.228554 -0.52213,2.166511 -0.717509,0.759228 -0.757379,0.846956 -0.758878,1.669828 -0.0011,0.581544 -0.01404,0.667593 -0.138299,0.916952 -0.148441,0.297883 -0.707268,0.893934 -1.154432,1.231332 -0.611513,0.461403 -1.235655,0.664209 -2.26923,0.737352 -0.38901,0.02753 -0.467441,0.04461 -0.325932,0.07098 0.129003,0.02404 0.04708,0.03695 -0.266214,0.04195 -0.248911,0.0039 -0.752055,0.01569 -1.118099,0.02603 -0.366044,0.01034 -1.072842,0.0034 -1.570662,-0.01548 z M 11.783215,30.558332 c -0.223707,-0.06715 -0.491279,-0.290899 -0.567275,-0.47437 -0.03697,-0.08926 -0.08458,-0.151566 -0.105796,-0.138454 -0.0592,0.03659 -0.10858,-2.468727 -0.10858,-5.5092 0,-2.989736 0.04916,-5.545923 0.105986,-5.510804 0.01979,0.01223 0.07506,-0.05973 0.12283,-0.159897 0.04777,-0.100173 0.187688,-0.248893 0.31093,-0.330488 0.224078,-0.148354 0.224078,-0.148354 2.064943,-0.16485 1.964885,-0.01761 2.114107,-0.0029 2.399428,0.237228 0.372333,0.313297 0.34685,-0.125943 0.343964,5.928811 -0.0024,4.986347 -0.01026,5.471774 -0.09126,5.624083 -0.119509,0.224696 -0.37271,0.429689 -0.613256,0.496494 -0.238574,0.06626 -3.641738,0.06753 -3.861911,0.0015 z m 14.898132,0.584909 c -0.147316,-0.02523 -0.03379,-0.03881 0.368263,-0.04403 0.319678,-0.0041 0.571251,0.0011 0.55905,0.01163 -0.04939,0.04272 -0.728511,0.06644 -0.927313,0.03239 z m 4.232802,-0.0034 c -0.157995,-0.02898 -0.139767,-0.03525 0.119797,-0.04119 0.16838,-0.0039 0.306145,0.0022 0.306145,0.01341 0,0.04397 -0.249095,0.06022 -0.425942,0.02778 z m -5.336183,-0.08725 c 0.12523,-0.01125 0.316904,-0.01109 0.425943,3.73e-4 0.109039,0.01144 0.0066,0.02064 -0.227689,0.02045 -0.234268,-2.13e-4 -0.323483,-0.0096 -0.198254,-0.0208 z m -0.852338,-0.05278 c 0.0957,-0.01185 0.239452,-0.01161 0.319457,5.43e-4 0.08001,0.01215 0.0017,0.02184 -0.173992,0.02154 -0.175702,-3.19e-4 -0.24116,-0.01024 -0.145465,-0.02209 z m -0.666488,-0.05279 c 0.08053,-0.0122 0.212306,-0.0122 0.292835,0 0.08053,0.0122 0.01465,0.02218 -0.146418,0.02218 -0.161059,0 -0.226947,-0.01 -0.146417,-0.02218 z m 8.958099,-0.263749 c 0.02928,-0.0263 0.191355,-0.140012 0.360157,-0.252687 0.447194,-0.2985 1.121275,-0.989617 1.284292,-1.316753 0.07655,-0.153618 0.139185,-0.243354 0.139185,-0.199412 0,0.309198 -1.092233,1.441437 -1.672661,1.733926 -0.09032,0.04551 -0.140256,0.06123 -0.110973,0.03492 z m -20.05593,-0.05743 c 0.448384,-0.0089 1.167161,-0.0089 1.597284,4.4e-5 0.430122,0.0089 0.06326,0.01623 -0.815244,0.01621 -0.878506,-2.4e-5 -1.230424,-0.0073 -0.78204,-0.01626 z m 2.942544,-0.187706 c 0.09881,-0.06658 0.234123,-0.201904 0.300709,-0.30071 0.06658,-0.0988 0.121063,-0.14899 0.121063,-0.111523 0,0.08864 -0.444657,0.533296 -0.533296,0.533296 -0.03747,0 0.01272,-0.05448 0.111524,-0.121063 z m -4.49707,-0.04337 c -0.141092,-0.110984 -0.3277,-0.410241 -0.283423,-0.454519 0.01286,-0.01286 0.0538,0.05006 0.09098,0.139826 0.03718,0.08976 0.142233,0.222041 0.233448,0.293952 0.09122,0.07191 0.151109,0.131012 0.133095,0.131337 -0.01801,3.19e-4 -0.09636,-0.04944 -0.174103,-0.110596 z m 4.940739,-1.379612 c 0,-0.512462 0.008,-0.722105 0.01775,-0.465874 0.0098,0.25623 0.0098,0.675517 0,0.931748 -0.0098,0.256231 -0.01775,0.04659 -0.01775,-0.465874 z m 1.280471,0.785331 c -0.01395,-0.03661 -0.01918,-2.534357 -0.01164,-5.550561 0.01372,-5.484007 0.01372,-5.484007 0.320132,-5.488384 0.306412,-0.0044 0.306412,-0.0044 0.01331,0.01597 -0.293102,0.02034 -0.293102,0.02034 -0.293102,5.52388 0,4.35301 0.01391,5.509149 0.06656,5.53039 0.05213,0.02103 0.05176,0.02776 -0.0017,0.03106 -0.03753,0.0023 -0.07964,-0.02575 -0.09358,-0.06235 z m -6.60596,-1.024923 c 9.3e-5,-0.380686 0.0086,-0.529436 0.01884,-0.330554 0.01027,0.198882 0.0102,0.510352 -1.69e-4,0.692157 -0.01037,0.181803 -0.01877,0.01908 -0.01868,-0.361603 z m 23.799166,-0.638914 c 1.06e-4,-0.351402 0.0087,-0.48823 0.01915,-0.30406 0.01042,0.18417 0.01034,0.471681 -2.13e-4,0.638914 -0.01053,0.167233 -0.01906,0.01655 -0.01896,-0.334854 z m 0.28322,-1.118099 c 0.0919,-0.117134 0.291742,-0.332767 0.44409,-0.479185 0.152348,-0.146417 0.381883,-0.406615 0.510079,-0.578217 0.128196,-0.171602 0.232417,-0.291398 0.231602,-0.266214 -0.0027,0.0842 -0.287141,0.424108 -0.82233,0.982777 -0.291794,0.304596 -0.455343,0.457973 -0.363441,0.340839 z M 16.403791,22.413082 c 0,-1.683804 0.0068,-2.372632 0.01498,-1.53073 0.0082,0.841901 0.0082,2.219558 0,3.06146 -0.0082,0.841901 -0.01498,0.153073 -0.01498,-1.53073 z m 19.845286,2.411898 c -0.07879,-0.256715 -0.04066,-0.294847 0.04259,-0.0426 0.03512,0.106417 0.0535,0.203839 0.04085,0.216493 -0.01265,0.01265 -0.0502,-0.0656 -0.08344,-0.173899 z m -0.32395,-0.873085 c -0.03267,-0.09371 -0.05771,-0.196765 -0.05565,-0.228999 0.002,-0.03224 0.0381,0.03514 0.08008,0.149714 0.04198,0.114577 0.06702,0.217627 0.05565,0.229 -0.01137,0.01137 -0.04741,-0.056 -0.08008,-0.149715 z m -0.09741,-0.553822 c 4.26e-4,-0.146418 0.01074,-0.199996 0.02298,-0.119064 0.01224,0.08093 0.01191,0.200729 -7.04e-4,0.266214 -0.01264,0.06549 -0.02265,-7.04e-4 -0.02225,-0.14715 z m 0.241614,-0.652224 c 0.0574,-0.08053 0.159472,-0.194336 0.226825,-0.252903 0.06735,-0.05857 0.02893,0.0073 -0.08539,0.146418 -0.228849,0.278448 -0.304728,0.335579 -0.141433,0.106485 z m 0.745414,-1.666296 c -0.04907,-0.115781 -0.07964,-0.210513 -0.06792,-0.210513 0.03905,0 0.190484,0.325953 0.173686,0.373851 -0.0091,0.02595 -0.05669,-0.04756 -0.105765,-0.163338 z m -25.79254,-1.009155 c 0,-0.395327 0.0084,-0.557052 0.01863,-0.359388 0.01024,0.197663 0.01024,0.521114 0,0.718777 -0.01024,0.197664 -0.01863,0.03594 -0.01863,-0.359389 z m 0.08798,-1.134053 c -0.0089,-0.161389 0.406572,-0.622959 0.56077,-0.622959 0.026,0 -0.04195,0.06063 -0.151002,0.134727 -0.109048,0.0741 -0.245327,0.223846 -0.302842,0.332768 -0.05752,0.108922 -0.105632,0.178881 -0.106926,0.155464 z m 5.162197,-0.08644 c 0,-0.105797 -0.299406,-0.396924 -0.503604,-0.489678 -0.118345,-0.05375 -0.184035,-0.09827 -0.145976,-0.09891 0.03806,-6.44e-4 0.136329,0.03355 0.218378,0.07597 0.229688,0.118776 0.590713,0.561769 0.457823,0.561769 -0.01464,0 -0.02662,-0.02212 -0.02662,-0.04915 z m 2.475789,-0.31833 c 0.323684,-0.186657 0.925847,-0.804244 1.276955,-1.309661 0.282571,-0.406761 0.390568,-0.538639 0.30521,-0.372699 -0.32466,0.631143 -1.50344,1.838947 -1.792248,1.836376 -0.03087,-2.66e-4 0.06366,-0.06958 0.210083,-0.154016 z m 18.011423,-0.292439 c 0.0794,-0.12869 0.153865,-0.225014 0.165472,-0.214053 0.02349,0.02219 -0.24837,0.448037 -0.286024,0.448037 -0.0131,0 0.04115,-0.105292 0.120552,-0.233984 z m -23.934683,-0.01883 c 0.4905,-0.0088 1.293135,-0.0088 1.783634,0 0.490499,0.0088 0.08918,0.01597 -0.891817,0.01597 -0.980998,0 -1.382316,-0.0072 -0.891817,-0.01597 z m 23.850193,-1.319018 c -0.06371,-0.131133 -0.104654,-0.238424 -0.09099,-0.238424 0.03607,0 0.251204,0.432469 0.227118,0.456555 -0.01116,0.01116 -0.07242,-0.087 -0.13613,-0.218131 z M 20.482503,16.529753 c 0.06577,-0.117134 0.142448,-0.236931 0.170391,-0.266214 0.07973,-0.08356 -0.102608,0.253743 -0.201476,0.372699 -0.04867,0.05857 -0.03468,0.01065 0.03108,-0.106485 z m 15.74829,-0.359389 c -0.06675,-0.09517 -0.253348,-0.316795 -0.414652,-0.492496 -0.293278,-0.319457 -0.293278,-0.319457 -0.01845,-0.05828 0.254399,0.241755 0.641198,0.723822 0.580776,0.723822 -0.01447,0 -0.08092,-0.07787 -0.147676,-0.17304 z m -15.432774,-0.19966 c 0.05976,-0.117135 0.12063,-0.212972 0.135271,-0.212972 0.01465,0 -0.02227,0.09584 -0.08203,0.212972 -0.05976,0.117134 -0.12063,0.212971 -0.135272,0.212971 -0.01464,0 0.02227,-0.09584 0.08203,-0.212971 z m 13.057794,-0.996506 c 0.08053,-0.0122 0.212306,-0.0122 0.292836,0 0.08053,0.0122 0.01465,0.02218 -0.146418,0.02218 -0.16106,0 -0.226947,-0.01 -0.146418,-0.02218 z M 21.33491,14.932472 c 0,-0.02928 0.04591,-0.1371 0.102023,-0.239593 0.05611,-0.102492 0.102022,-0.16239 0.102022,-0.133107 0,0.02928 -0.04591,0.137101 -0.102022,0.239593 -0.05611,0.102492 -0.102023,0.162391 -0.102023,0.133107 z m 6.824657,-0.01159 c 0.08093,-0.01224 0.200728,-0.01191 0.266214,7.04e-4 0.06549,0.01264 -7.04e-4,0.02265 -0.14715,0.02225 -0.146417,-4.25e-4 -0.199996,-0.01074 -0.119064,-0.02298 z m 4.604769,-0.0011 c 0.153739,-0.01075 0.405311,-0.01075 0.559049,0 0.153739,0.01075 0.02795,0.01956 -0.279524,0.01956 -0.307477,0 -0.433264,-0.0088 -0.279525,-0.01956 z m -3.008217,-0.05381 c 0.431932,-0.0089 1.13873,-0.0089 1.570662,0 0.431932,0.0089 0.07853,0.01627 -0.785332,0.01627 -0.863864,0 -1.217262,-0.0073 -0.78533,-0.01627 z M 27.68084,14.320177 c 0,-0.131776 0.01038,-0.185684 0.02307,-0.119797 0.01269,0.06589 0.01269,0.173705 0,0.239593 -0.01269,0.06589 -0.02307,0.01198 -0.02307,-0.119796 z m -6.132959,0.133107 c 0,-0.02928 0.04591,-0.1371 0.102023,-0.239592 0.05611,-0.102493 0.102022,-0.162391 0.102022,-0.133108 0,0.02928 -0.04591,0.137101 -0.102022,0.239593 -0.05611,0.102493 -0.102023,0.162391 -0.102023,0.133107 z m 0.687694,-1.59018 c 0,-0.05769 0.264608,-0.566153 0.294629,-0.566153 0.01464,0 -0.03656,0.125786 -0.113788,0.279525 -0.148522,0.295675 -0.180841,0.346901 -0.180841,0.286628 z m 5.86117,-0.166832 c 0,-0.02928 0.04591,-0.1371 0.102022,-0.239593 0.05611,-0.102492 0.102022,-0.16239 0.102022,-0.133107 0,0.02928 -0.04591,0.137101 -0.102022,0.239593 -0.05611,0.102493 -0.102022,0.162391 -0.102022,0.133107 z m -5.508689,-0.519117 c 0.138333,-0.234202 0.496348,-0.598991 1.055186,-1.07515 0.703187,-0.599152 1.059202,-0.96097 1.247201,-1.2675334 0.148273,-0.2417824 0.21212,-0.2679997 0.07683,-0.03155 -0.159984,0.2796154 -0.646394,0.7765364 -1.326708,1.3553764 -0.354668,0.301767 -0.73695,0.669434 -0.849515,0.817038 -0.192852,0.252886 -0.290504,0.34997 -0.202999,0.201819 z m 5.775898,-0.06656 c 0,-0.02928 0.129319,-0.304815 0.287377,-0.612292 0.158057,-0.307477 0.287377,-0.53509 0.287377,-0.505806 0,0.02928 -0.12932,0.304815 -0.287377,0.612291 -0.158058,0.307478 -0.287377,0.535091 -0.287377,0.505807 z M 29.1616,10.460072 c 0,-0.02928 0.04591,-0.1371 0.102023,-0.239592 0.05611,-0.102493 0.102022,-0.162391 0.102022,-0.133107 0,0.02928 -0.04591,0.1371 -0.102022,0.239592 -0.05611,0.102493 -0.102023,0.162391 -0.102023,0.133107 z m 0.600402,-2.6355179 c 0,-0.2781936 0.009,-0.3920001 0.01994,-0.2529033 0.01097,0.1390968 0.01097,0.3667097 0,0.5058066 -0.01097,0.1390967 -0.01994,0.02529 -0.01994,-0.2529033 z m -0.550277,-2.3001 C 28.984958,5.1334769 28.488952,4.6612544 28.063984,4.4317469 c -0.17478,-0.094391 -0.292412,-0.1722587 -0.261405,-0.173039 0.121652,-0.00306 0.704344,0.3925007 0.984695,0.6684645 0.269654,0.2654335 0.680104,0.8494827 0.630162,0.8966842 -0.01139,0.010763 -0.103958,-0.1239682 -0.205711,-0.2994025 z M 26.137526,4.8695812 c 4.26e-4,-0.1464177 0.01074,-0.1999967 0.02298,-0.1190642 0.01224,0.080932 0.01191,0.2007286 -7.03e-4,0.266214 -0.01264,0.065485 -0.02265,-7.316e-4 -0.02226,-0.1471498 z m 0.04222,-0.4658745 c -0.0049,-0.1076824 0.1773,-0.3078498 0.275322,-0.3025425 0.03661,0.00198 0.01355,0.029195 -0.05121,0.060475 -0.06478,0.03128 -0.14075,0.1195049 -0.168836,0.196057 -0.03373,0.091934 -0.05249,0.1075538 -0.05527,0.046011 z M 25.922637,31.106114 c 0.109814,-0.01149 0.289508,-0.01149 0.399321,0 0.109814,0.01149 0.01997,0.02088 -0.19966,0.02088 -0.219627,0 -0.309473,-0.0094 -0.199661,-0.02088 z m -0.904395,-0.05266 c 0.08093,-0.01224 0.200729,-0.01191 0.266215,7.04e-4 0.06549,0.01264 -7.04e-4,0.02265 -0.14715,0.02225 -0.146418,-4.25e-4 -0.199997,-0.01074 -0.119065,-0.02298 z M 17.57475,29.800519 c -0.01395,-0.03661 -0.01918,-2.522378 -0.01163,-5.52394 0.01372,-5.457387 0.01372,-5.457387 0.04034,0.06656 0.01464,3.038169 0.01987,5.523941 0.01163,5.523939 -0.0082,-1e-6 -0.02639,-0.02995 -0.04034,-0.06655 z m -1.171543,-2.169645 c 0,-1.215266 0.007,-1.71242 0.01553,-1.104787 0.0085,0.607633 0.0085,1.601942 0,2.209576 -0.0085,0.607633 -0.01553,0.110479 -0.01553,-1.104789 z m 18.46541,0.05324 c 0,-0.131776 0.01038,-0.185685 0.02307,-0.119796 0.01269,0.06589 0.01269,0.173704 0,0.239592 -0.01269,0.06589 -0.02307,0.01198 -0.02307,-0.119796 z m 0.651033,-1.064856 c 0.203414,-0.204985 0.381823,-0.372699 0.396465,-0.372699 0.01465,0 -0.139807,0.167714 -0.343222,0.372699 -0.203414,0.204985 -0.381823,0.372699 -0.396465,0.372699 -0.01465,0 0.139809,-0.167714 0.343222,-0.372699 z m 0.292836,-10.994637 c -0.129328,-0.131776 -0.223163,-0.239593 -0.208521,-0.239593 0.01464,0 0.132435,0.107817 0.261764,0.239593 0.129328,0.131776 0.223163,0.239592 0.208521,0.239592 -0.01465,0 -0.132436,-0.107816 -0.261764,-0.239592 z M 33.696817,14.92088 c 0.08093,-0.01224 0.200728,-0.01191 0.266214,7.03e-4 0.06549,0.01264 -7.03e-4,0.02265 -0.14715,0.02225 -0.146417,-4.26e-4 -0.199996,-0.01074 -0.119064,-0.02298 z m -5.511361,-0.05429 c 0.153739,-0.01075 0.405311,-0.01075 0.559049,0 0.153739,0.01075 0.02795,0.01955 -0.279524,0.01955 -0.307477,0 -0.433263,-0.0088 -0.279525,-0.01955 z m 4.152937,0 c 0.153739,-0.01075 0.405312,-0.01075 0.55905,0 0.153739,0.01075 0.02795,0.01955 -0.279525,0.01955 -0.307477,0 -0.433262,-0.0088 -0.279525,-0.01955 z m -4.601769,-0.546416 c 0,-0.190343 0.0097,-0.268211 0.02147,-0.173039 0.01181,0.09517 0.01181,0.250906 0,0.346078 -0.01181,0.09517 -0.02147,0.0173 -0.02147,-0.173039 z M 28.784437,4.9228239 C 28.655109,4.791048 28.561274,4.6832314 28.575916,4.6832314 c 0.01465,0 0.132436,0.1078166 0.261764,0.2395925 0.129329,0.1317759 0.223163,0.2395926 0.208521,0.2395926 -0.01464,0 -0.132435,-0.1078167 -0.261764,-0.2395926 z M 13.011261,30.679164 c 0.388007,-0.0091 1.022927,-0.0091 1.410934,0 0.388007,0.0091 0.07055,0.01654 -0.705467,0.01654 -0.776014,0 -1.093474,-0.0074 -0.705467,-0.01654 z m 21.124077,-0.812091 c 0.144216,-0.146418 0.274191,-0.266215 0.288833,-0.266215 0.01464,0 -0.09137,0.119797 -0.23559,0.266215 -0.144216,0.146418 -0.274191,0.266214 -0.288833,0.266214 -0.01464,0 0.09137,-0.119796 0.23559,-0.266214 z m 0.73703,-1.570663 c 2.12e-4,-0.234268 0.0096,-0.323482 0.0208,-0.198253 0.01125,0.125229 0.01109,0.316903 -3.73e-4,0.425943 -0.01144,0.109039 -0.02065,0.0066 -0.02045,-0.22769 z M 16.456292,22.040382 c 0,-1.127416 0.0071,-1.588632 0.01568,-1.024924 0.0086,0.563709 0.0086,1.48614 0,2.049848 -0.0086,0.563708 -0.01568,0.102492 -0.01568,-1.024924 z m 1.320931,-3.339259 c 0.08093,-0.01224 0.200728,-0.01191 0.266214,7.03e-4 0.06549,0.01264 -7.03e-4,0.02265 -0.14715,0.02225 -0.146418,-4.26e-4 -0.199996,-0.01074 -0.119064,-0.02298 z m 1.527773,-0.667261 c 0.130551,-0.139097 0.244358,-0.252903 0.252903,-0.252903 0.03998,0 -0.0023,0.0478 -0.237367,0.268438 -0.252904,0.237368 -0.252904,0.237368 -0.01554,-0.01554 z m -6.95927,0.133463 c 0.226948,-0.01 0.598316,-0.01 0.825264,0 0.226947,0.01 0.04126,0.01815 -0.412632,0.01815 -0.453895,0 -0.639579,-0.0082 -0.412632,-0.01815 z m 1.943362,4.3e-5 c 0.212306,-0.01011 0.559715,-0.01011 0.772021,0 0.212305,0.01011 0.0386,0.01837 -0.386011,0.01837 -0.424611,0 -0.598316,-0.0083 -0.38601,-0.01837 z m 15.570373,-3.354523 c 0.371637,-0.0091 0.994577,-0.0092 1.384312,-5.3e-5 0.389736,0.0091 0.08567,0.01659 -0.675702,0.01661 -0.761372,3e-5 -1.080246,-0.0074 -0.70861,-0.01656 z m -6.851866,-3.208051 c 0.173868,-0.175701 0.328103,-0.319456 0.342745,-0.319456 0.01464,0 -0.115635,0.143755 -0.289502,0.319456 -0.173868,0.175702 -0.328103,0.319457 -0.342745,0.319457 -0.01464,0 0.115634,-0.143755 0.289502,-0.319457 z m 6.80441,-3.7802378 c 0,-0.1610595 0.01,-0.2269474 0.02218,-0.1464177 0.0122,0.08053 0.0122,0.2123057 0,0.2928354 -0.0122,0.08053 -0.02218,0.014642 -0.02218,-0.1464177 z M 11.999648,30.681382 c 0.06589,-0.01269 0.173705,-0.01269 0.239593,0 0.06589,0.01269 0.01198,0.02307 -0.119797,0.02307 -0.131776,0 -0.185684,-0.01038 -0.119796,-0.02307 z m 3.194567,0 c 0.06589,-0.01269 0.173705,-0.01269 0.239593,0 0.06589,0.01269 0.01198,0.02307 -0.119796,0.02307 -0.131776,0 -0.185684,-0.01038 -0.119797,-0.02307 z m 1.262106,-4.567926 c 1.4e-5,-1.142058 0.0071,-1.601687 0.01566,-1.021398 0.0086,0.580289 0.0086,1.514699 -2.6e-5,2.076469 -0.0086,0.561769 -0.01566,0.08699 -0.01564,-1.055071 z m 19.116572,0.505806 c 0.203415,-0.204984 0.381824,-0.372699 0.396466,-0.372699 0.01464,0 -0.139809,0.167715 -0.343223,0.372699 -0.203414,0.204985 -0.381823,0.3727 -0.396465,0.3727 -0.01464,0 0.139808,-0.167715 0.343222,-0.3727 z M 16.450714,19.591213 c 0,-0.24891 0.0092,-0.350736 0.02038,-0.226281 0.01121,0.124454 0.01121,0.328108 0,0.452563 -0.01121,0.124456 -0.02038,0.02263 -0.02038,-0.226282 z m 19.361772,-4.01983 c -0.129328,-0.131776 -0.223163,-0.239593 -0.208521,-0.239593 0.01464,0 0.132435,0.107817 0.261764,0.239593 0.129328,0.131775 0.223163,0.239592 0.208521,0.239592 -0.01465,0 -0.132436,-0.107817 -0.261764,-0.239592 z M 28.63802,14.813819 c 0.109813,-0.01149 0.289508,-0.01149 0.399321,0 0.109813,0.01149 0.01997,0.02088 -0.199661,0.02088 -0.219626,0 -0.309473,-0.0094 -0.19966,-0.02088 z m 3.435114,2.13e-4 c 0.0957,-0.01185 0.239451,-0.01161 0.319456,5.43e-4 0.08,0.01215 0.0017,0.02185 -0.173993,0.02155 -0.175701,-3.2e-4 -0.24116,-0.01024 -0.145463,-0.02209 z M 29.810552,8.3037414 c 0,-0.131776 0.01038,-0.1856843 0.02307,-0.1197963 0.01269,0.065888 0.01269,0.1737046 0,0.2395925 -0.01269,0.065888 -0.02307,0.01198 -0.02307,-0.1197962 z m 0,-0.9583704 c 0,-0.1317759 0.01038,-0.1856842 0.02307,-0.1197963 0.01269,0.065888 0.01269,0.1737047 0,0.2395926 -0.01269,0.065888 -0.02307,0.01198 -0.02307,-0.1197963 z M 28.83768,4.9228239 C 28.708352,4.791048 28.614518,4.6832314 28.62916,4.6832314 c 0.01464,0 0.132435,0.1078166 0.261763,0.2395925 0.129329,0.1317759 0.223163,0.2395926 0.208522,0.2395926 -0.01464,0 -0.132436,-0.1078167 -0.261765,-0.2395926 z M 24.83116,31.107325 c 0.06589,-0.01269 0.173705,-0.01269 0.239593,0 0.06589,0.01269 0.01198,0.02307 -0.119796,0.02307 -0.131776,0 -0.185684,-0.01038 -0.119797,-0.02307 z M 13.517068,30.733414 c 0.109813,-0.01149 0.289507,-0.01149 0.399321,0 0.109813,0.01149 0.01997,0.02088 -0.199661,0.02088 -0.219626,0 -0.309474,-0.0094 -0.19966,-0.02088 z m 20.671513,-0.866341 c 0.173868,-0.175702 0.328103,-0.319457 0.342744,-0.319457 0.01464,0 -0.115633,0.143755 -0.289502,0.319457 -0.173868,0.175701 -0.328102,0.319457 -0.342744,0.319457 -0.01465,0 0.115634,-0.143756 0.289502,-0.319457 z M 16.453896,29.041809 c -5.3e-5,-0.49782 0.0079,-0.70864 0.01778,-0.468488 0.0098,0.240151 0.0099,0.647458 1.06e-4,0.905127 -0.0098,0.257669 -0.01783,0.06118 -0.01789,-0.436639 z m 1.067612,0.811953 c -0.01395,-0.0366 -0.01918,-2.546336 -0.01163,-5.577182 0.01372,-5.510629 0.01372,-5.510629 0.04034,0.06656 0.01464,3.067453 0.01987,5.577185 0.01163,5.577183 -0.0082,-2e-6 -0.02639,-0.02995 -0.04034,-0.06656 z m 17.405548,-1.796944 c 0,-0.307478 0.0088,-0.433263 0.01955,-0.279525 0.01076,0.153738 0.01076,0.405311 0,0.559049 -0.01075,0.153739 -0.01955,0.02795 -0.01955,-0.279524 z M 17.829733,18.647951 c 0.08053,-0.0122 0.212306,-0.0122 0.292836,0 0.08053,0.0122 0.01465,0.02218 -0.146418,0.02218 -0.161059,0 -0.226947,-0.01 -0.146418,-0.02218 z M 19.2806,17.993929 c 0.114378,-0.117133 0.21994,-0.21297 0.234582,-0.21297 0.01465,0 -0.06696,0.09584 -0.18134,0.21297 -0.114378,0.117135 -0.21994,0.212972 -0.234582,0.212972 -0.01464,0 0.06696,-0.09584 0.18134,-0.212972 z m -6.399123,0.119881 c 0.463043,-0.0089 1.20578,-0.0089 1.650526,4.1e-5 0.444747,0.0089 0.0659,0.01616 -0.841896,0.01614 -0.90779,-2.2e-5 -1.271673,-0.0073 -0.80863,-0.01617 z m 20.947715,-3.245537 c 0.06589,-0.01269 0.173704,-0.01269 0.239593,0 0.06589,0.01269 0.01198,0.02307 -0.119797,0.02307 -0.131776,0 -0.185684,-0.01038 -0.119796,-0.02307 z m -5.696978,-0.05324 c 0.06589,-0.01269 0.173704,-0.01269 0.239592,0 0.06589,0.01269 0.01198,0.02307 -0.119796,0.02307 -0.131776,0 -0.185684,-0.01038 -0.119796,-0.02307 z m 4.57888,-0.0014 c 0.124454,-0.01121 0.328108,-0.01121 0.452563,0 0.124455,0.01121 0.02263,0.02038 -0.226282,0.02038 -0.24891,0 -0.350737,-0.0092 -0.226281,-0.02038 z m -2.688762,-0.05399 c 0.314799,-0.0094 0.829923,-0.0094 1.14472,0 0.314798,0.0094 0.05724,0.01711 -0.572359,0.01711 -0.629596,0 -0.887158,-0.0077 -0.572361,-0.01711 z M 27.787326,14.32018 c 0,-0.131776 0.01038,-0.185684 0.02307,-0.119797 0.01269,0.06589 0.01269,0.173705 0,0.239593 -0.01269,0.06589 -0.02307,0.01198 -0.02307,-0.119796 z m -3.461972,16.786587 c 0.08053,-0.0122 0.212305,-0.0122 0.292836,0 0.08053,0.0122 0.01464,0.02218 -0.146418,0.02218 -0.16106,0 -0.226948,-0.01 -0.146418,-0.02218 z m -0.612292,-0.05268 c 0.06589,-0.01269 0.173705,-0.01269 0.239592,0 0.06589,0.01269 0.01198,0.02307 -0.119796,0.02307 -0.131776,0 -0.185684,-0.01038 -0.119796,-0.02307 z m 9.122264,-0.1393 c 0.08783,-0.06788 0.527991,-0.301452 0.527991,-0.280178 0,0.03424 -0.447764,0.297324 -0.506046,0.297324 -0.02427,0 -0.03414,-0.0077 -0.02195,-0.01715 z M 12.188431,30.732581 c 0.228286,-0.01 0.587675,-0.0099 0.798642,1.59e-4 0.210967,0.01008 0.02419,0.01827 -0.415065,0.01819 -0.439253,-5.3e-5 -0.611862,-0.0083 -0.383577,-0.01832 z m 2.28944,0 c 0.228286,-0.01 0.587675,-0.0099 0.798642,1.59e-4 0.210967,0.01008 0.02419,0.01827 -0.415065,0.01819 -0.439253,-5.3e-5 -0.611863,-0.0083 -0.383577,-0.01832 z m -2.917476,-0.0755 c -0.144086,-0.07934 -0.452564,-0.373692 -0.452564,-0.431841 0,-0.02579 0.0628,0.02775 0.139552,0.118964 0.07675,0.09122 0.226499,0.211792 0.332768,0.267946 0.106268,0.05615 0.169256,0.102428 0.139972,0.102832 -0.02928,4.26e-4 -0.101161,-0.02565 -0.159728,-0.0579 z m 4.50852,-0.161453 c 0.07844,-0.06751 0.203934,-0.230569 0.278883,-0.362344 0.07495,-0.131776 0.136561,-0.217739 0.136913,-0.191028 0.0015,0.11103 -0.272045,0.501969 -0.409807,0.585752 -0.1486,0.09037 -0.1486,0.09037 -0.006,-0.03238 z m 17.560617,-0.07418 c 0.318203,-0.268586 0.909107,-0.860711 1.057995,-1.060183 0.0981,-0.131435 0.107975,-0.136151 0.05572,-0.02662 -0.07778,0.163015 -0.9105,0.994359 -1.166952,1.165024 -0.13941,0.09277 -0.125998,0.07307 0.05324,-0.07822 z m -17.118555,-5.98514 c 0,-2.972279 0.0064,-4.188212 0.0143,-2.702072 0.0079,1.48614 0.0079,3.918004 0,5.404144 -0.0079,1.486139 -0.0143,0.270206 -0.0143,-2.702072 z m 0.958388,-0.106486 c 0,-3.030846 0.0064,-4.270738 0.01428,-2.755314 0.0078,1.515423 0.0078,3.995205 0,5.510629 -0.0079,1.515423 -0.01428,0.275531 -0.01428,-2.755315 z m 17.422349,4.52287 c 0.01666,-0.130254 0.03898,-0.246808 0.04959,-0.25901 0.04344,-0.04994 0.01391,0.347584 -0.03111,0.418739 -0.03155,0.04988 -0.03808,-0.0065 -0.01848,-0.159729 z m 0.07804,-1.141952 c -0.01122,-0.34127 0.05255,-0.442948 0.727572,-1.160098 0.297376,-0.315935 0.587638,-0.663344 0.645027,-0.772021 0.05739,-0.108676 0.105403,-0.170988 0.106697,-0.13847 0.0044,0.108782 -0.272453,0.465876 -0.8277,1.067867 -0.552492,0.599006 -0.590015,0.662474 -0.624292,1.055964 -0.01694,0.194454 -0.01931,0.189824 -0.02731,-0.05324 z m 1.055707,-4.674472 c 0,-0.03034 0.740628,-0.948694 0.86756,-1.07575 0.183152,-0.183334 -0.490995,0.680784 -0.848061,1.08704 -0.01073,0.0122 -0.0195,0.0071 -0.0195,-0.01129 z m 0.702982,-2.384238 c -0.0961,-0.173479 -0.163568,-0.315417 -0.149927,-0.315417 0.03603,0 0.367134,0.588356 0.344079,0.611411 -0.01068,0.01068 -0.09805,-0.122515 -0.194152,-0.295994 z M 36.186,19.506912 c 4.27e-4,-0.08541 0.02373,-0.19123 0.05174,-0.235156 0.03468,-0.05439 0.0405,-0.01192 0.01827,0.133108 -0.04035,0.263187 -0.07109,0.307997 -0.07,0.102048 z m 0.185294,-0.474748 c 0.159519,-0.256959 0.559291,-0.79679 0.559291,-0.755236 0,0.0403 -0.512628,0.771052 -0.6045,0.861722 -0.02967,0.02928 -0.0093,-0.01863 0.04521,-0.106486 z m -20.02703,-0.293998 c -0.136987,-0.306947 -0.423268,-0.516993 -0.79884,-0.586114 -0.258034,-0.04749 -0.258034,-0.04749 9.15e-4,-0.0288 0.326068,0.02353 0.652025,0.242175 0.823521,0.552398 0.06824,0.123433 0.116154,0.245705 0.106486,0.271716 -0.0097,0.02601 -0.06909,-0.06812 -0.132047,-0.209196 z m -5.103326,-0.258431 c 0.162338,-0.178728 0.441427,-0.354961 0.488146,-0.308243 0.01413,0.01412 -0.02669,0.04231 -0.0907,0.06262 -0.06401,0.02031 -0.215562,0.123459 -0.33678,0.229206 -0.21893,0.190988 -0.219333,0.191097 -0.06067,0.01641 z m 7.533855,-0.09674 c 0.490548,-0.34923 1.06006,-1.039247 1.602049,-1.941032 0.314653,-0.523534 0.402635,-0.623401 0.157189,-0.178422 -0.479566,0.869424 -1.318658,1.906438 -1.714346,2.118721 -0.167978,0.09012 -0.170505,0.09016 -0.04489,7.03e-4 z m 17.980382,-1.588514 c -0.07859,-0.160241 -0.131575,-0.291347 -0.117744,-0.291347 0.03584,0 0.304392,0.538936 0.280473,0.562855 -0.01091,0.01091 -0.08414,-0.111267 -0.162729,-0.271508 z m -0.315451,-0.54425 c -0.254374,-0.383855 -0.633983,-0.786939 -0.927625,-0.984992 -0.162815,-0.109814 -0.273551,-0.199661 -0.24608,-0.199661 0.121064,0 0.649736,0.443169 0.897956,0.752729 0.290754,0.362603 0.475472,0.631584 0.43373,0.631584 -0.01412,0 -0.08521,-0.08985 -0.157981,-0.19966 z M 20.995782,15.307416 c 0.167015,-0.335525 0.312106,-0.601603 0.322425,-0.591284 0.02354,0.02354 -0.564903,1.201329 -0.600205,1.201329 -0.01424,0 0.110765,-0.274521 0.27778,-0.610045 z m 12.512766,-0.493238 c 0.09452,-0.01176 0.262233,-0.01196 0.3727,-4.26e-4 0.110465,0.01153 0.03313,0.02115 -0.171852,0.02138 -0.204985,2.12e-4 -0.295367,-0.0092 -0.200848,-0.02096 z m -5.594554,-0.05475 c -0.01366,-0.02196 0.218526,-0.0336 0.515975,-0.02587 0.978763,0.02545 1.085404,0.04595 0.291057,0.05596 -0.430203,0.0054 -0.793367,-0.0081 -0.807032,-0.03008 z m 4.129235,4.79e-4 c 0.196383,-0.01021 0.531812,-0.01028 0.745399,-1.59e-4 0.213587,0.01013 0.05291,0.01849 -0.357059,0.01857 -0.40997,1.07e-4 -0.584723,-0.0082 -0.38834,-0.01842 z m -4.199691,-0.466353 c 2.13e-4,-0.204985 0.0099,-0.282318 0.02138,-0.171852 0.01153,0.110467 0.01133,0.278181 -4.26e-4,0.372699 -0.01176,0.09452 -0.02119,0.0041 -0.02095,-0.200847 z m 0.14871,-0.93175 c -9.15e-4,-0.04393 0.03127,-0.151741 0.07149,-0.239592 0.09415,-0.205627 0.09554,-0.109983 0.0019,0.133108 -0.03947,0.102491 -0.0725,0.15041 -0.07341,0.106484 z m -5.967799,-0.33762 c -9.85e-4,-0.02463 0.109862,-0.261072 0.246393,-0.525421 0.292177,-0.565708 0.613209,-0.928409 1.408455,-1.591267 0.317922,-0.264996 0.689532,-0.60585 0.825801,-0.757453 0.136269,-0.1516028 0.198398,-0.2037634 0.138064,-0.115913 -0.138948,0.20232 -0.492013,0.537657 -1.109348,1.053646 -0.673424,0.56287 -0.926328,0.861554 -1.238159,1.462282 -0.148148,0.285401 -0.27019,0.498758 -0.271206,0.474126 z m 6.285615,-0.487642 c 0,-0.02928 0.05774,-0.16106 0.128295,-0.292836 0.07056,-0.131775 0.128296,-0.215633 0.128296,-0.186349 0,0.02928 -0.05774,0.161059 -0.128296,0.292835 -0.07056,0.131776 -0.128295,0.215633 -0.128295,0.18635 z m 0.426589,-0.905128 c 0,-0.02928 0.12932,-0.304815 0.287377,-0.612292 0.158057,-0.307477 0.287377,-0.53509 0.287377,-0.505807 0,0.02928 -0.12932,0.304815 -0.287377,0.612292 -0.158057,0.307478 -0.287377,0.53509 -0.287377,0.505807 z M 25.015281,9.343686 c 0.0934,-0.1894021 0.178601,-0.3355821 0.189339,-0.3248442 0.0238,0.023805 -0.298117,0.6692122 -0.333797,0.6692122 -0.01395,0 0.05106,-0.1549653 0.144458,-0.344368 z m 4.855687,-1.5191298 c 0,-0.4831784 0.0081,-0.6808423 0.01794,-0.4392531 0.0099,0.2415892 0.0099,0.636917 0,0.8785062 -0.0099,0.2415891 -0.01794,0.043925 -0.01794,-0.4392531 z M 29.377654,5.5606985 C 29.125036,5.0734643 28.606706,4.5744008 28.078916,4.3102336 27.845217,4.1932635 27.683228,4.0975606 27.718941,4.0975606 c 0.180487,0 0.850591,0.4276909 1.168701,0.7459184 0.29854,0.2986497 0.747027,0.977252 0.686119,1.0381606 -0.01076,0.01076 -0.09901,-0.1336639 -0.196107,-0.3209411 z M 25.977797,5.0825523 c 4.27e-4,-0.1464176 0.01074,-0.1999966 0.02298,-0.1190642 0.01224,0.080932 0.01191,0.2007286 -7.03e-4,0.266214 -0.01264,0.065485 -0.02265,-7.315e-4 -0.02226,-0.1471498 z"
       style="fill:#ffffff" />
  </g>
</svg>
